<mxfile host="65bd71144e">
    <diagram id="8Cl0XczP5R13OWce0h90" name="第 1 页">
        <mxGraphModel dx="625" dy="370" grid="0" gridSize="10" guides="1" tooltips="1" connect="1" arrows="1" fold="1" page="0" pageScale="1" pageWidth="4681" pageHeight="3300" math="0" shadow="0">
            <root>
                <mxCell id="0"/>
                <mxCell id="1" parent="0"/>
                <mxCell id="2" value="&lt;font style=&quot;font-size: 20px;&quot;&gt;传输层常见协议概览&lt;/font&gt;" style="text;html=1;strokeColor=none;fillColor=none;align=center;verticalAlign=middle;whiteSpace=wrap;rounded=0;" vertex="1" parent="1">
                    <mxGeometry x="263" y="121" width="218" height="38" as="geometry"/>
                </mxCell>
                <mxCell id="3" value="TCP&lt;br&gt;（传输控制协议）" style="rounded=1;whiteSpace=wrap;html=1;fontSize=20;fillColor=#dae8fc;strokeColor=#6c8ebf;" vertex="1" parent="1">
                    <mxGeometry x="162" y="185" width="179" height="60" as="geometry"/>
                </mxCell>
                <mxCell id="4" value="UDP&lt;br&gt;（用户数据协议）" style="rounded=1;whiteSpace=wrap;html=1;fontSize=20;fillColor=#d5e8d4;strokeColor=#82b366;" vertex="1" parent="1">
                    <mxGeometry x="413" y="185" width="179" height="60" as="geometry"/>
                </mxCell>
            </root>
        </mxGraphModel>
    </diagram>
</mxfile>